<?xml version="1.0" encoding="utf-8"?>
<!-- Generator: Adobe Illustrator 19.1.0, SVG Export Plug-In . SVG Version: 6.00 Build 0)  -->
<svg version="1.1" id="Layer_1" xmlns="http://www.w3.org/2000/svg" xmlns:xlink="http://www.w3.org/1999/xlink" x="0px" y="0px"
	 viewBox="0 0 400 91" style="enable-background:new 0 0 400 91;" xml:space="preserve">
<style type="text/css">
	.st0{fill:#3ABB9B;}
	.st1{fill:url(#SVGID_1_);}
	.st2{fill:#8CC150;}
</style>
<g>
	<path class="st0" d="M5.5,48.2v-2L29,34v2.7L8.6,47.2L29,57.7v2.7L5.5,48.2z"/>
	<linearGradient id="SVGID_1_" gradientUnits="userSpaceOnUse" x1="37.384" y1="47.231" x2="366.4613" y2="47.231">
		<stop  offset="0" style="stop-color:#3ABB9B"/>
		<stop  offset="0.3011" style="stop-color:#5AC1A7"/>
		<stop  offset="0.392" style="stop-color:#6AC49C"/>
		<stop  offset="0.5684" style="stop-color:#8CCA80"/>
		<stop  offset="0.672" style="stop-color:#A0CF69"/>
		<stop  offset="1" style="stop-color:#8CC150"/>
	</linearGradient>
	<path class="st1" d="M37.4,47.3v-0.1c0-10,7.5-18.3,17.7-18.3c6.3,0,10.1,2.3,13.8,5.7L67,36.5c-3.1-3-6.6-5.2-11.9-5.2
		c-8.5,0-14.9,6.9-14.9,15.8v0.1c0,9,6.5,15.9,15,15.9c5.1,0,8.6-2,12.2-5.5l1.8,1.7c-3.7,3.7-7.8,6.2-14.1,6.2
		C44.9,65.6,37.4,57.5,37.4,47.3z M73.7,47.3v-0.1c0-9.7,7.1-18.3,17.9-18.3s17.8,8.6,17.8,18.2v0.1c0,9.7-7.1,18.3-17.9,18.3
		S73.7,57,73.7,47.3z M106.6,47.3v-0.1c0-8.8-6.4-15.9-15.1-15.9c-8.8,0-15,7.1-15,15.8v0.1c0,8.8,6.4,15.9,15.1,15.9
		S106.6,56.1,106.6,47.3z M118.3,29.5h2.5l14.2,21l14.2-21h2.5v35.4h-2.6V34.2l-14,20.4h-0.2l-14-20.4v30.8h-2.5V29.5z M162.2,29.5
		h12.9c7.8,0,13.2,4,13.2,10.8v0.1c0,7.4-6.4,11.3-13.8,11.3h-9.6v13.2h-2.6V29.5z M174.6,49.3c6.6,0,11-3.4,11-8.7v-0.1
		c0-5.6-4.4-8.6-10.7-8.6h-10v17.4H174.6z M194.5,47.3v-0.1c0-9.7,7.1-18.3,17.9-18.3c10.7,0,17.8,8.6,17.8,18.2v0.1
		c0,9.7-7.1,18.3-17.9,18.3S194.5,57,194.5,47.3z M227.4,47.3v-0.1c0-8.8-6.4-15.9-15.1-15.9c-8.8,0-15,7.1-15,15.8v0.1
		c0,8.8,6.4,15.9,15.1,15.9C221.1,63.2,227.4,56.1,227.4,47.3z M236.5,59.8l1.7-2c3.9,3.6,7.5,5.3,12.7,5.3c5.3,0,9-3,9-7v-0.1
		c0-3.7-2-5.9-10-7.5c-8.5-1.7-11.9-4.6-11.9-10v-0.1c0-5.3,4.8-9.3,11.4-9.3c5.2,0,8.6,1.4,12.1,4.3l-1.7,2.1
		c-3.3-2.9-6.7-4-10.6-4c-5.2,0-8.7,3-8.7,6.7v0.1c0,3.7,1.9,6,10.3,7.7c8.2,1.7,11.6,4.6,11.6,9.8v0.1c0,5.7-4.9,9.7-11.7,9.7
		C245.1,65.5,240.8,63.6,236.5,59.8z M271.2,29.5h25.2v2.4h-22.6v13.9h20.3v2.4h-20.3v14.2h22.8v2.4h-25.5V29.5z M305.1,29.5H320
		c4.4,0,7.8,1.4,10,3.5c1.7,1.7,2.7,4,2.7,6.6v0.1c0,5.9-4.4,9.3-10.4,10.1L334,64.9h-3.3l-11.3-14.7h-11.6v14.7h-2.6V29.5z
		 M319.7,47.9c5.9,0,10.3-3,10.3-8.1v-0.1c0-4.8-3.7-7.7-10.2-7.7h-12.1v15.9H319.7z M364,23.8h2.5l-23.9,46.9h-2.5L364,23.8z"/>
	<path class="st2" d="M371,57.7l20.4-10.4L371,36.8V34l23.5,12.2v2L371,60.4V57.7z"/>
</g>
</svg>
